PathFileType	4	(X/Y/Z)	Patient4_TMGait_0pt7_01_left_31.trc.trc
DataRate	CameraRate	NumFrames	NumMarkers	Units	OrigDataRate	OrigDataStartFrame	OrigNumFrames
84.337349397591	84.337349397591	4	33	mm	84.337349397591	1	       141
Frame#	Time	Sacral			L.Shoulder			Chest			R.Shoulder			Neck			R.ASIS			L.ASIS			R.Thigh.Superior			R.Thigh.Lateral			R.Thigh.Inferior			R.Patella			L.Thigh.Superior			L.Thigh.Lateral			L.Thigh.Inferior			L.Patella			L.Shank.Superior			L.Shank.Lateral			L.Shank.Inferior			R.Shank.Superior			R.Shank.Lateral			R.Shank.Inferior			R.Heel			R.Midfoot.Superior			R.Midfoot.Lateral			R.Toe			L.Heel			L.Midfoot.Lateral			L.Midfoot.Superior			L.Toe			L.Elbow			L.Wrist			R.Elbow			R.Wrist			
		X1	Y1	Z1	X2	Y2	Z2	X3	Y3	Z3	X4	Y4	Z4	X5	Y5	Z5	X6	Y6	Z6	X7	Y7	Z7	X8	Y8	Z8	X9	Y9	Z9	X10	Y10	Z10	X11	Y11	Z11	X12	Y12	Z12	X13	Y13	Z13	X14	Y14	Z14	X15	Y15	Z15	X16	Y16	Z16	X17	Y17	Z17	X18	Y18	Z18	X19	Y19	Z19	X20	Y20	Z20	X21	Y21	Z21	X22	Y22	Z22	X23	Y23	Z23	X24	Y24	Z24	X25	Y25	Z25	X26	Y26	Z26	X27	Y27	Z27	X28	Y28	Z28	X29	Y29	Z29	X30	Y30	Z30	X31	Y31	Z31	X32	Y32	Z32	X33	Y33	Z33	

1	35.770000000000	807.271041469567	1009.810093239153	555.296323444727	1014.750925822534	1428.245475775191	372.200589818583	1114.379810892062	1345.989444473455	530.846297191426	1045.141085804371	1429.884299677704	705.692068263339	1032.328086423083	1487.999276464425	526.393197859939	1032.497197204509	942.914304086625	674.382297392518	1017.627547697033	957.020816176973	399.395276465134	1077.318382755967	745.689490584593	650.118465378020	994.911829332885	634.658585502920	701.699554590090	1079.197628814765	585.303049827827	626.253437060610	1080.955658774767	495.194233175069	631.819320032242	1101.635048268751	785.519548641227	419.996269578874	1058.175145180550	659.441135606829	336.761730423403	1167.371809269251	598.954253148629	391.165455731403	1183.223710751348	509.046808478371	380.971718315404	1117.853174418513	439.652554444890	377.211515383280	975.417225747387	393.540328383338	334.069999017591	969.419739816751	264.319918478372	388.665557496231	1050.008337941362	406.988594956527	634.601459540808	972.483525963613	302.676333585651	688.231931941291	1019.525329514111	209.134072259002	625.286474567167	887.534270365086	43.571702223449	584.448775615228	1059.089323642221	98.510231066744	621.549596974252	970.964111129187	35.963177576767	658.096700039997	1178.756623497175	47.227406759589	647.442193791435	781.621314575329	187.124269653758	433.604800296621	838.976674382496	152.522230355646	347.773569266360	943.996300977543	166.251495843632	365.591024805278	1028.025346414825	62.801152192407	325.382788312646	945.081432304214	1084.126419688439	259.755588317443	1123.554755785931	893.126556029328	280.922057345540	1046.718649030475	1083.399820882207	839.799072265782	1176.965053528301	854.453440149899	828.920226464793	
2	35.781857142857	806.282526878548	1010.806412642367	556.536407418487	1013.658575860734	1428.441106765855	372.906560627002	1114.144531647713	1346.115394299335	530.972533484737	1046.193292410100	1430.190033342571	706.156609936232	1032.558765162661	1488.327378683807	527.210481534911	1031.830178958137	943.207439181877	674.801197552845	1016.198946601910	957.726002392230	399.760203961439	1073.464602618756	744.944841231877	649.568984209110	990.284732336870	634.842303031804	702.118435773477	1073.253275636263	584.515952703940	626.135552715764	1073.725367162922	494.719635763871	631.670959423724	1101.312267122157	788.730532895426	421.031038515432	1061.045524293403	662.730979074616	336.401823505136	1170.251705787393	603.485850152019	391.764727942485	1188.181069971162	514.814067318935	380.782053497979	1126.101157663715	443.841555296777	375.790591228475	986.844003790229	390.853353080282	331.850259244315	987.937111133824	261.237331756421	385.185163615152	1042.738864533890	406.695027929500	634.463927406446	965.023500359103	302.710455895631	688.309494259398	1011.507241233290	208.943395063783	625.105519005015	878.747177710519	43.600944392824	584.368369892779	1050.430034712380	98.453381570913	621.504608335627	962.184939014913	36.007726403783	658.012229719532	1170.011846168723	46.810148786602	647.443544253411	805.566373973531	174.302897707819	429.096324089178	864.288256776455	143.269150831485	343.079170550589	968.157876964850	162.152522833788	361.098127932892	1057.016746891397	63.534868474790	320.295198616704	938.389249370980	1084.657686515977	262.643786351161	1098.953464006177	880.934895057939	278.744173432064	1058.947130342640	1085.874953385993	841.968995080341	1202.850463502270	867.594675812975	826.951267624802	
3	35.793714285714	805.297565286967	1011.762391324857	557.738157221416	1012.601467461797	1428.602554904687	373.582227503138	1113.920166012465	1346.202906343880	531.080593554091	1047.234287335702	1430.461014986578	706.599926286895	1032.788060353150	1488.616416608128	527.993693074756	1031.155754907966	943.465226873231	675.200415632756	1014.784245837647	958.376060997645	400.115746583407	1069.679276542352	744.192705780224	649.008130092331	985.721199032401	634.996500221243	702.500734545335	1067.375224646921	583.718576457255	625.983594614699	1066.577735430016	494.241046673695	631.471056717799	1100.924551747493	791.794898553454	422.053966096889	1063.759219896786	665.887587766755	336.066062129371	1172.942408844863	607.851576624102	392.384241161089	1192.926735552764	520.433437998905	380.628679871613	1134.133543711200	447.936385856073	374.417459802122	998.170619526830	388.126110414507	329.593209310467	1006.312239150512	258.202087404609	381.708756646578	1035.566154945249	406.392526778479	634.290382352053	957.679475496579	302.720989192317	688.370570977313	1003.585902040289	208.742463540113	624.898801210132	870.064370951830	43.626853466828	584.291437384268	1041.864978648681	98.389759806799	621.447989845996	953.505703946704	36.054766820183	657.928973535268	1161.367613993925	46.390354145195	647.450232106777	829.424739977484	161.639130041731	424.498178769569	889.529356142019	134.166214909888	338.346822554148	992.187923255231	158.148364824607	356.648694034645	1085.824673471985	64.369008342512	315.345282076814	931.876316003922	1085.160093510023	265.452719525058	1074.439433849566	869.208620748907	276.593847385450	1070.947220761226	1088.358607559429	844.065405579190	1228.298875106759	880.851060337698	824.866743278442	
4	35.805571428571	804.327097780750	1012.637793225326	558.863976312871	1011.625035115291	1428.694794563618	374.191903344566	1113.724373134479	1346.209940388540	531.148227444299	1048.260277971311	1430.661455831988	706.992831584821	1033.026632363617	1488.825546832655	528.702875223453	1030.475178391735	943.653365507878	675.555228617003	1013.397398553096	958.914554445053	400.441284860142	1066.003449936442	743.418442290641	648.425745055215	981.241564682947	635.097785413409	702.813388884507	1061.576953108833	582.895761168543	625.771056113380	1059.531938853276	493.752785630478	631.179221184652	1100.398245362729	794.553440622483	423.034587290588	1066.133404556154	668.764118382780	335.749854129427	1175.237005623464	611.862995425269	393.005025192887	1197.224612832029	525.751064629060	380.525993289006	1141.737588494222	451.847331556210	373.126480746745	1009.345223942332	385.308025478907	327.257521256872	1024.478019529130	255.281723654463	378.249730856389	1028.514799264013	406.074870234029	634.051134906659	950.489631657873	302.691793157647	688.402096702648	995.781975155472	208.524644338659	624.646030826825	861.509913934069	43.648276828176	584.221262722073	1033.411644149006	98.314596920591	621.371836159049	944.948567639293	36.107035043079	657.851221786289	1152.846293190221	45.967249716055	647.465981461203	853.246831578498	149.287032164448	419.738246267124	914.779148240738	125.367264777997	333.573532194373	1016.072611009917	154.368856603748	352.308821772575	1114.393682525796	65.482881325637	310.734754209330	925.655567931423	1085.636167988586	268.089081665389	1050.035136687470	858.435496091775	274.495754963356	1082.553299170847	1090.865446331832	845.982449494001	1252.928251813679	894.507037332954	822.498516168928	
